# xmcd
#
# Track frame offsets:
#	150
#	45498
#	88042
#	114742
#	151859
#	194941
#	223369
#
# Disc length: 3475 seconds
#
# Revision: 0
# Processed by: cddbd v1.5.2PL0 Copyright (c) Steve Scherf et al.
# Submitted via: audiograbber 1.83.01
#
DISCID=660d9107
DTITLE=Venja - Shapeshifter
DYEAR=2016
DGENRE=Electronic
TTITLE0=Shapeshifter
TTITLE1=Brainspawn
TTITLE2=Lifted
TTITLE3=Drifting
TTITLE4=The Return
TTITLE5=Knowhere
TTITLE6=Shapeshifter Revealed
EXTD=
EXTT0=
EXTT1=
EXTT2=
EXTT3=
EXTT4=
EXTT5=
EXTT6=
PLAYORDER=
